#!OML:ASF F:\VICON\USERDATA\INSTALL\rory3\rory3.ASF
:FULLY-SPECIFIED
:DEGREES
28
root 0.19395208251109708 18.00666347058274 5.247199972740686 -1.4213247000129292 1.43130014218311 -1.3931095749698614
lfemur 5.527826944617843 -5.502416889331623 -19.746820603256808
ltibia 36.99924894808651
lfoot -3.9893973487282772 -10.48703337989453
ltoes -4.55516346577555
rfemur -21.310533640325772 3.659041473995975 25.48480669337761
rtibia 31.98760923334897
rfoot -3.8836951145227623 -2.5275766572950786
rtoes 3.3644283925254714
lowerback 8.995186640668807 -0.5668139889690815 0.09925890423381589
upperback 0.18652801986431902 -1.3933523350414527 1.9567580154672126
thorax -4.524344547557654 -0.6067952337183211 2.16311305148324
lowerneck -16.46684725715031 -2.618742788952315 -2.0309604942966772
upperneck 21.89914283747305 -4.195500102826499 -0.07136538116049673
head 9.676307175117925 -1.8813725881618977 -0.16639781153458555
lclavicle -4.5363838167466385e-16 -7.766939183144396e-16
lhumerus -25.215551372019966 1.1215203218845131 80.84783468761974
lradius 29.72557157349368
lwrist 8.60361031831833
lhand -27.8843712890075 23.42017068585708
lfingers 7.12502
lthumb -1.1258811435922378 53.89476312798066
rclavicle -4.535518465659998e-16 -7.766270354004893e-16
rhumerus -36.75395051392802 -31.435657003301422 -70.52325520562927
rradius 21.730629435883206
rwrist 5.609287227802893
rhand -18.184216932647985 22.97157107069137
rfingers 7.12502
rthumb 7.98329235569527 -7.223364043455317
29
root 0.14168022920555132 18.058701245146064 5.639515847166237 -1.8579434725492665 1.0487555844587373 -2.500232725671581
lfemur 0.11933535872706358 -4.19843075565106 -16.755789602679574
ltibia 46.603772871360434
lfoot 0.4299975143996493 -12.855553238698008
ltoes -3.9016520501225287
rfemur -17.741784883802367 4.386795991503442 28.002874659488697
rtibia 32.90982980901793
rfoot -4.532909439047077 -3.411307124384066
rtoes 3.082186118712828
lowerback 9.274992384448161 -0.3709851115161891 1.0951890463198841
upperback 0.16916520533676116 -1.029274907385907 2.1758685144935828
thorax -4.623877848522046 -0.3984430415196454 1.5883985786129682
lowerneck -16.32336893576826 -2.6351782037065057 -2.080248394968092
upperneck 22.069463681854852 -4.191758604475016 -0.12793411694421186
head 9.678691407995455 -1.9068071585317705 -0.17133458663864848
lclavicle -4.536383680429807e-16 -7.766939077785229e-16
lhumerus -26.600412423390452 1.366506830254512 81.24148841708053
lradius 28.470113697186854
lwrist 7.7145085003844045
lhand -27.59545766649145 23.646078804717543
lfingers 7.12502
lthumb -0.9407792405197732 54.146149012778615
rclavicle -4.535517067374037e-16 -7.76626927327083e-16
rhumerus -35.93312962955057 -30.069715825568693 -71.69644969324767
rradius 21.552709502855674
rwrist 5.189531344844965
rhand -18.25357531195567 22.791915099121468
rfingers 7.12502
rthumb 8.036358953828282 -7.277574349966872
30
root 0.0919282850202301 18.104297854862804 6.277587663645919 -2.31732594231615 0.6606330068232307 -3.504232441054761
lfemur -5.664292729028424 -2.443637791535571 -14.399369158416139
ltibia 55.80066706805107
lfoot 4.038609352133046 -14.436086074140803
ltoes -2.8469874404986384
rfemur -14.821911458572535 4.80409131953922 29.692533438718577
rtibia 33.30451637759518
rfoot -6.084267464345765 -4.312078059739204
rtoes 4.022737988371873
lowerback 9.700969925077173 -0.10563715541090829 2.0834835615715543
upperback 0.20244259265591372 -0.5340107508794725 2.2562939216758773
thorax -4.752034508577946 -0.1669346647217485 1.1150653845566931
lowerneck -16.1299882965426 -2.7013010211161235 -2.0965780625105226
upperneck 22.230229647214465 -4.190552213342304 -0.07926977318056816
head 9.715839318996844 -1.9398401077571152 -0.1309477853144969
lclavicle -4.536382221069972e-16 -7.76693794984722e-16
lhumerus -28.07152063209327 1.4662680463366526 81.48650401261685
lradius 27.227937182317444
lwrist 7.0509797997394
lhand -27.68062223924284 24.493652921075185
lfingers 7.12502
lthumb -1.017670873093338 54.833500325056484
rclavicle -4.535516295935062e-16 -7.766268677026285e-16
rhumerus -33.94194085767271 -27.7566884859811 -73.6929173765384
rradius 21.499483557903485
rwrist 5.083941861618248
rhand -18.040324744413006 22.145815274044107
rfingers 7.12502
rthumb 8.211956787695932 -8.015002437746851
31
root 0.04602271058454849 18.134027135338076 6.767652525352593 -2.741671145284924 0.1586157310938483 -4.121566336768224
lfemur -11.3468728730241 -0.31078591177501025 -13.301980589353901
ltibia 62.10752697443831
lfoot 5.1256056131036045 -15.031021032172092
ltoes -1.4834793986947632
rfemur -11.482455888955396 5.100069166244834 30.873179084313996
rtibia 33.93957714874648
rfoot -7.78591158500422 -4.570985593621941
rtoes 5.054958641235365
lowerback 9.811168818415121 0.20793033688221355 2.795149403444447
upperback 0.25541401244450196 -0.0569193584391946 2.2530661600983484
thorax -4.779048445680954 0.045513317095464634 0.6054790497645484
lowerneck -16.101092571226282 -2.761841854170257 -2.141302913753562
upperneck 22.329452371241064 -4.198297652366877 -0.09390350753055199
head 9.728471247238808 -1.9829865295546687 -0.10889073731473427
lclavicle -4.5363741597095e-16 -7.766931719228378e-16
lhumerus -29.18406096511044 2.1961144698098694 81.61753798488427
lradius 26.174897753211088
lwrist 6.675869364681344
lhand -27.656630535950438 23.544373504710492
lfingers 7.12502
lthumb -1.118069319840305 53.6935594193524
rclavicle -4.535515094873236e-16 -7.766267748726593e-16
rhumerus -31.692956491009255 -25.356611608450827 -75.64562592981278
rradius 21.65243354288805
rwrist 5.178404399697198
rhand -17.76094712989203 22.606669322200016
rfingers 7.12502
rthumb 8.442331079526681 -7.602151757244293
